<?xml version="1.0" encoding="utf-8"?>
<!-- Generator: Adobe Illustrator 21.0.0, SVG Export Plug-In . SVG Version: 6.00 Build 0)  -->
<svg version="1.1" id="Capa_1" xmlns="http://www.w3.org/2000/svg" xmlns:xlink="http://www.w3.org/1999/xlink" x="0px" y="0px"
	 viewBox="0 0 512 512" style="enable-background:new 0 0 512 512;" xml:space="preserve">
<style type="text/css">
	.st0{fill:#F26F45;}
</style>
<g>
	<g>
		<path class="st0" d="M345.6,315.7c49.1-29.9,81.1-83.2,81.1-145.1C426.7,76.8,349.9,0,256,0S85.3,76.8,85.3,170.7
			c0,61.9,32,115.2,81.1,145.1C81.1,347.7,17.1,422.4,0,512h42.7C64,413.9,151.5,341.3,256,341.3S448,413.9,469.3,512H512
			C494.9,420.3,430.9,345.6,345.6,315.7z M128,170.7c0-70.4,57.6-128,128-128s128,57.6,128,128s-57.6,128-128,128
			S128,241.1,128,170.7z"/>
	</g>
</g>
</svg>
